<?xml version="1.0" encoding="iso-8859-1"?>
<!-- Generator: Adobe Illustrator 19.0.0, SVG Export Plug-In . SVG Version: 6.00 Build 0)  -->
<svg version="1.1" id="Capa_1" xmlns="http://www.w3.org/2000/svg" xmlns:xlink="http://www.w3.org/1999/xlink" x="0px" y="0px"
	 viewBox="0 0 496 496" style="enable-background:new 0 0 496 496;" xml:space="preserve">
<path style="fill:#7ACBFA;" d="M480,447.776H328.024L308,456H188l-22.048-8.224H16V168.224c0-4.544,3.584-8.224,8-8.224h448
	c4.416,0,8,3.68,8,8.224V447.776z"/>
<path style="fill:#D1E5F1;" d="M448,408H48V200c0-4.416,3.584-8,8-8h384c4.416,0,8,3.584,8,8V408z"/>
<path style="fill:#FB7647;" d="M488,208H104c-4.416,0-8-3.584-8-8V24c0-4.416,3.584-8,8-8h384c4.416,0,8,3.584,8,8v176
	C496,204.416,492.416,208,488,208z"/>
<path style="fill:#F1D9D0;" d="M394.56,176H133.44c-3.008,0-5.44-2.392-5.44-5.336V53.336c0-2.952,2.432-5.336,5.44-5.336h261.12
	c3.008,0,5.44,2.384,5.44,5.336v117.336C400,173.608,397.568,176,394.56,176z"/>
<circle style="fill:#FDCD3B;" cx="304" cy="208" r="96"/>
<g>
	<path style="fill:#7ACBFA;" d="M104,344H80c-4.416,0-8-3.584-8-8v-24h16v16h16V344z"/>
	<path style="fill:#7ACBFA;" d="M176,272h-16v-16h-16v-16h24c4.416,0,8,3.584,8,8V272z"/>
	
		<rect x="95.71" y="284.007" transform="matrix(-0.7071 0.7071 -0.7071 -0.7071 418.1431 410.8123)" style="fill:#7ACBFA;" width="56.559" height="16"/>
</g>
<g>
	<path style="fill:#FFF2CE;" d="M304,232c-2.12,0-4.152-0.84-5.656-2.344l-24-24l11.312-11.312l17.808,17.808l34.392-41.272
		l12.288,10.24l-40,48c-1.44,1.728-3.536,2.768-5.784,2.872C304.24,232,304.12,232,304,232z"/>
	<path style="fill:#FFF2CE;" d="M301.656,325.656l-11.312-11.312L300.688,304l-10.344-10.344l11.312-11.312l16,16
		c3.128,3.128,3.128,8.184,0,11.312L301.656,325.656z"/>
	<path style="fill:#FFF2CE;" d="M306.344,133.656l-16-16c-3.128-3.128-3.128-8.184,0-11.312l16-16l11.312,11.312L307.312,112
		l10.344,10.344L306.344,133.656z"/>
	<path style="fill:#FFF2CE;" d="M276.696,308.376c-35.704-9.688-63.76-37.92-73.232-73.672C201.168,226.04,200,217.056,200,208
		c0-8.288,0.984-16.544,2.912-24.544c8.904-36.792,37.128-65.84,73.664-75.8l4.208,15.44c-30.904,8.424-54.784,33-62.32,64.128
		C216.832,193.992,216,200.976,216,208c0,7.664,0.984,15.272,2.928,22.6c8.008,30.248,31.752,54.136,61.952,62.336L276.696,308.376z
		"/>
	<path style="fill:#FFF2CE;" d="M330.08,308.696l-4-15.496c31.248-8.072,55.504-32.536,63.312-63.848
		C391.12,222.408,392,215.224,392,208c0-6.784-0.776-13.536-2.296-20.072c-7.4-31.72-31.552-56.624-63.048-64.984l4.112-15.464
		c37.224,9.88,65.776,39.32,74.52,76.816C407.088,192.016,408,200,408,208c0,8.52-1.032,17.008-3.08,25.224
		C395.696,270.24,367.016,299.16,330.08,308.696z"/>
</g>
<circle style="fill:#F2E9CE;" cx="448" cy="112" r="16"/>
<path style="fill:#21A9F6;" d="M482.08,480H14.632c-2.432,0-4.728-1.104-6.248-3.008l-6.632-8.296C0.616,467.28,0,465.52,0,463.704
	V448c0-4.416,3.584-8,8-8h156.56c0.92,0,1.84,0.16,2.704,0.472l19.616,7.056c0.88,0.312,1.792,0.472,2.72,0.472h116.056
	c0.976,0,1.944-0.176,2.864-0.528l18.128-6.944c0.904-0.352,1.88-0.528,2.856-0.528H488c4.416,0,8,3.584,8,8v18.504
	c0,2.224-0.928,4.352-2.56,5.864l-5.92,5.496C486.04,479.24,484.096,480,482.08,480z"/>
<g>
	<rect x="440" y="440" style="fill:#D1E5F1;" width="16" height="16"/>
	<rect x="408" y="440" style="fill:#D1E5F1;" width="16" height="16"/>
	<rect x="40" y="440" style="fill:#D1E5F1;" width="16" height="16"/>
</g>
<g>
</g>
<g>
</g>
<g>
</g>
<g>
</g>
<g>
</g>
<g>
</g>
<g>
</g>
<g>
</g>
<g>
</g>
<g>
</g>
<g>
</g>
<g>
</g>
<g>
</g>
<g>
</g>
<g>
</g>
</svg>
